<?xml version="1.0" encoding="UTF-8"?>
<svg id="Layer_1" data-name="Layer 1" xmlns="http://www.w3.org/2000/svg" viewBox="0 0 1920 1920">
  <defs>
    <style>
      .cls-1 {
        fill: #ff003b;
      }
    </style>
  </defs>
  <path class="cls-1" d="M1663.92,786.74c-27.89-9.08-53.57-16.64-77.52-22.8,23.36-26.45,47.85-57.81,71.76-90.69,64.79-89.21,97.44-158.13,97.44-219.45,0-103.56-71.1-173.96-206.94-281.73-103.09-81.76-183.88-126.7-260.03-126.7-85.34,0-161.78,55.34-250.48,177.39-17.23,23.72-32.39,45.82-45.64,66.67-17.97-30.36-40.22-63.38-64.09-96.26-87.18-120.02-158.13-170.42-239.82-170.42-74.53,0-157.91,44.86-270.62,119.65-142.49,94.6-210.37,168.57-210.37,274.54,0,64.45,35.49,136.8,100.8,226.68,17.23,23.72,33.57,44.94,49.29,64.01-34.42,7.67-72.68,18.63-111.35,31.21C62.46,798.59,0,871.71,0,993.09c0,57.67,16.12,128.58,40.36,215.54,56.08,201.26,124.41,293.68,266.53,293.68,47.92,0,107.03-12.1,176.28-34.61,27.86-9.08,53.09-18.04,76.08-27.12-3.32,35.12-4.72,74.9-4.72,115.55,0,289.04,110.13,341.09,434.06,341.09,223.84,0,332.31-57.48,332.31-341.09,0-29.33-.74-56.08-2.29-80.76,32.39,14.02,69.8,27.67,108.47,40.21,76.15,24.76,136.66,33.58,186.65,33.58,115.44,0,185.1-101.83,256.12-292.54,33.1-88.88,50.14-161.67,50.14-221.55,0-121.75-77.33-190.27-256.08-248.34M1234.43,382.23l31.69-43.61c18.08-24.9,49.99-30.14,73.75-9.37,124.56,108.8,201.56,270.48,200.19,424.25-73.71-13.91-127.58-9.44-170.64,17.82,1.26-7.78,2.1-16.23,2.77-25.13,4.5-90.87-41.14-187.9-130.91-291.21-19.51-22.47-24.94-47.89-6.86-72.76M1118.8,702.99c106.7,77.51,167.69,109.1,203.03,112.93-33.43,43.06-60.88,107.14-89.73,195.91-40.73,125.44-51.95,193.22-44.65,228.01-51.32-18.48-120.72-24.79-214.06-24.79-131.86,0-199.78,10.29-230.63,27.97,1.7-54.49-13.76-122.45-42.57-211.22-40.77-125.4-71.54-186.84-97.88-210.71,52.36-15.2,112.23-50.91,187.72-105.78,106.7-77.52,155.62-125.77,170.16-158.21,30.62,45.09,83.09,91.02,158.61,145.88M502.91,389.57c141.94-84.82,319.51-108.1,465.35-59.29-36.05,65.78-48.41,118.39-35.79,167.8-7.01-3.62-14.79-7.01-23.06-10.37-85.04-32.39-191.41-18.96-317.4,34.46-27.41,11.66-53.24,8.93-71.32-15.94l-31.69-43.61c-18.08-24.9-13.17-56.86,13.91-73.05M520.58,847.91c-57.08,70.88-77.19,176.21-65.27,312.54,2.59,29.66-8,53.39-37.23,62.91l-51.28,16.64c-29.26,9.52-58.15-5.02-65.16-35.79-36.82-161.23-4.1-337.29,87.4-460.89,51.43,54.57,97.62,82.61,148.5,85.89-5.61,5.54-11.21,11.88-16.97,18.71M1068.4,1596.44c0,30.77-22.77,53.75-54.2,50.91-164.7-14.79-322.02-100.35-411.31-225.58,67.81-32.03,108.73-67.3,127.55-114.67,3.54,7.05,7.86,14.35,12.58,21.92,49.73,76.19,143.71,127.88,277.04,158.69,29.04,6.68,48.33,24.09,48.33,54.83v53.9ZM1655.87,1106.62c-64.97,152.04-194.95,275.23-341.65,321.46-9.52-74.38-30.4-124.22-69.66-156.76,7.79-1.18,16.09-3.03,24.76-5.17,87.85-23.76,165.99-97.18,236.5-214.47,15.35-25.49,37.85-38.52,67.07-29l51.28,16.64c29.26,9.52,44.09,38.26,31.69,67.3"/>
</svg>